<svg width="3969" height="938" viewBox="0 0 3969 938" fill="none" xmlns="http://www.w3.org/2000/svg">
<path d="M1593.31 267.852C1501.27 267.852 1438.28 296.581 1391.7 360.492C1355.3 304.416 1281.13 267.852 1200.47 267.852C1128.76 267.852 1081.26 286.443 1033.81 335V331.816C1033.81 296.124 1004.88 267.189 969.185 267.189C933.493 267.189 904.559 296.124 904.559 331.816V865.295C904.559 903.431 935.475 934.347 973.611 934.347H973.612C1011.75 934.347 1042.66 903.431 1042.66 865.295V564.869C1042.66 449.659 1087.18 395.999 1182.76 395.999C1267.64 395.999 1310.68 448.715 1310.68 552.696V865.295C1310.68 903.431 1341.6 934.347 1379.73 934.347H1379.74C1417.88 934.347 1448.79 903.431 1448.79 865.295V563.768C1448.79 446.175 1489.04 395.999 1583.35 395.999C1671.91 395.999 1716.81 453.188 1716.81 565.981V865.295C1716.81 903.431 1747.73 934.347 1785.86 934.347C1824 934.347 1854.92 903.431 1854.92 865.295V537.207C1854.92 368.551 1757.12 267.852 1593.31 267.852Z" fill="#FF8900"/>
<path d="M2667.86 267.852C2575.81 267.852 2512.83 296.581 2466.25 360.492C2429.85 304.416 2355.67 267.852 2275.01 267.852C2203.31 267.852 2155.81 286.443 2108.36 335V331.816C2108.36 296.124 2079.43 267.189 2043.73 267.189C2008.04 267.189 1979.11 296.124 1979.11 331.816V865.295C1979.11 903.431 2010.02 934.347 2048.16 934.347C2086.29 934.347 2117.21 903.431 2117.21 865.295V564.869C2117.21 449.659 2161.73 395.999 2257.31 395.999C2342.19 395.999 2385.23 448.715 2385.23 552.696V865.295C2385.23 903.431 2416.15 934.347 2454.28 934.347H2454.29C2492.42 934.347 2523.34 903.431 2523.34 865.295V563.768C2523.34 446.175 2563.58 395.999 2657.9 395.999C2746.45 395.999 2791.36 453.188 2791.36 565.981V865.295C2791.36 903.431 2822.27 934.347 2860.41 934.347C2898.55 934.347 2929.46 903.431 2929.46 865.295V537.207C2929.46 368.551 2831.67 267.852 2667.86 267.852Z" fill="#FF8900"/>
<path d="M3559.37 603.602C3559.37 716.238 3468.72 807.878 3357.3 807.878C3250.17 807.878 3159.66 714.327 3159.66 603.602C3159.66 489.134 3248.32 395.999 3357.3 395.999C3472.5 395.999 3559.37 485.244 3559.37 603.602ZM3557.15 332.967V351.546C3508.82 296.66 3439.22 267.852 3353.98 267.852C3164.46 267.852 3021.55 416.007 3021.55 612.459C3021.55 793.895 3169.51 936.024 3358.41 936.024C3440.67 936.024 3511.35 904.126 3557.15 847.419V868.103C3557.15 906.24 3588.07 937.156 3626.21 937.156C3664.34 937.156 3695.26 906.24 3695.26 868.103V332.967C3695.26 297.275 3666.33 268.34 3630.63 268.34H3621.78C3586.09 268.34 3557.15 297.275 3557.15 332.967" fill="#FF8900"/>
<path d="M714.788 711.789L714.232 711.733C690.83 708.707 672.745 721.071 647.702 738.147C610.852 763.288 565.037 794.549 476.326 798.32C389.301 799.323 312.048 771.821 252.712 718.635C199.434 670.871 158.792 603.711 145.382 529.528C120.329 390.947 181.012 221.549 364.297 155.495C400.001 143.569 437.565 138.272 476.202 139.677C545.266 142.453 610.576 167.389 665.108 211.788C693.685 234.795 734.817 230.873 758.702 202.845C775.466 179.947 779.008 157.445 769.004 134.709C736.009 59.6934 572.237 10.0775 515.553 3.8788C496.53 1.3388 477.438 0.0854237 458.421 0.0854237C350.388 0.0854237 244.186 40.4508 160.033 114.792C57.2995 205.543 -0.929829 334.637 0.284838 468.975C-1.34583 576.615 37.3715 683.695 109.301 770.765C181.642 858.336 279.312 915.343 384.316 931.281C408.813 935.54 433.749 937.679 458.685 937.679C566.168 937.676 669.98 899.488 750.992 830.147C771.893 813.432 779.541 786.417 771.252 759.404C762.878 732.133 741.246 713.888 714.788 711.789Z" fill="#FF8900"/>
<path d="M659.829 381.766C641.716 385.262 626.048 395.6 615.712 410.877C593.94 443.058 557.799 462.266 519.043 462.266C480.281 462.266 444.14 443.058 422.368 410.877C412.032 395.602 396.364 385.265 378.251 381.772C373.845 380.921 369.416 380.502 365.027 380.502C351.371 380.502 338.028 384.562 326.473 392.382C294.935 413.725 286.639 456.742 307.979 488.282C355.473 558.476 434.372 600.384 519.043 600.384C603.708 600.384 682.607 558.476 730.101 488.282C751.44 456.742 743.145 413.725 711.607 392.382C696.336 382.042 677.96 378.285 659.829 381.766Z" fill="#FF8900"/>
<path d="M3869.18 842.175V813.637H3887.66C3897.47 813.637 3903.51 818.287 3903.51 827.466C3903.51 839.031 3895.84 842.175 3887.41 842.175H3869.18ZM3918.21 827.341C3918.21 813.762 3908.91 801.315 3886.16 801.315H3854.98V889.319H3869.18V853.991H3885.15L3906.15 889.319H3922.61L3899.36 851.981C3912.05 848.083 3918.21 839.283 3918.21 827.341" fill="#FF8900"/>
<path d="M3883.77 919.681C3843.86 919.681 3811.38 887.205 3811.38 847.288C3811.38 807.37 3843.86 774.893 3883.77 774.893C3923.69 774.893 3956.17 807.37 3956.17 847.288C3956.17 887.205 3923.69 919.681 3883.77 919.681ZM3883.77 762.588C3837.07 762.588 3799.08 800.584 3799.08 847.288C3799.08 893.99 3837.07 931.986 3883.77 931.986C3930.48 931.986 3968.47 893.99 3968.47 847.288C3968.47 800.584 3930.48 762.588 3883.77 762.588Z" fill="#FF8900"/>
</svg>
